<?xml version="1.0" standalone="no"?>
<!DOCTYPE svg PUBLIC "-//W3C//DTD SVG 20010904//EN"
 "http://www.w3.org/TR/2001/REC-SVG-20010904/DTD/svg10.dtd">
<svg version="1.0" xmlns="http://www.w3.org/2000/svg"
 width="1280.000000pt" height="720.000000pt" viewBox="0 0 1280.000000 720.000000"
 preserveAspectRatio="xMidYMid meet">

<g transform="translate(0.000000,720.000000) scale(0.100000,-0.100000)"
fill="#000000" stroke="none">
<path d="M2255 6694 c-71 -17 -134 -53 -196 -111 l-46 -43 -74 34 c-90 41
-157 56 -251 56 -159 0 -285 -54 -401 -171 l-78 -79 -60 20 c-70 24 -191 28
-261 10 -190 -51 -338 -240 -338 -432 l0 -58 -55 -24 c-128 -57 -216 -142
-280 -271 -94 -188 -80 -402 37 -567 21 -30 28 -80 138 -986 33 -271 65 -525
70 -565 6 -40 38 -292 70 -562 33 -269 74 -600 91 -735 16 -135 50 -407 75
-605 47 -381 50 -394 105 -422 19 -10 360 -12 1592 -10 l1569 2 27 31 c33 36
28 6 116 729 36 292 78 638 95 770 16 132 64 517 106 855 166 1350 182 1469
202 1498 117 165 131 379 37 567 -64 129 -152 214 -280 271 l-55 24 0 58 c0
192 -148 381 -338 432 -70 18 -191 14 -261 -10 l-60 -20 -78 79 c-118 119
-242 171 -409 171 -95 0 -165 -18 -261 -65 l-71 -35 -51 48 c-116 112 -270
153 -426 116z m211 -220 c54 -23 94 -64 129 -135 38 -75 56 -89 109 -89 29 0
47 10 97 55 34 31 91 69 127 86 61 29 70 31 156 27 73 -4 101 -9 141 -31 62
-32 97 -61 134 -111 l28 -39 -31 -66 c-28 -61 -31 -74 -30 -166 0 -115 13
-152 87 -251 53 -73 95 -93 151 -74 43 14 66 48 66 98 0 29 -10 51 -40 92 -53
70 -65 117 -49 182 44 187 318 215 423 44 26 -41 30 -58 30 -115 0 -36 -4 -92
-9 -124 -7 -55 -7 -59 20 -87 19 -20 46 -33 84 -41 87 -19 137 -44 192 -96 61
-57 93 -117 108 -200 14 -74 7 -130 -27 -205 l-25 -58 -1957 0 -1957 0 -22 48
c-44 96 -45 222 0 316 33 70 157 176 207 176 8 0 39 -23 69 -50 69 -63 114
-86 190 -99 145 -23 237 50 188 152 -19 41 -50 57 -111 57 -93 0 -154 50 -175
145 -18 80 0 149 54 211 50 57 105 83 173 84 66 0 106 -14 173 -62 89 -63 139
-47 196 60 45 85 101 144 174 180 49 24 68 27 151 27 110 0 153 -16 246 -92
31 -25 69 -47 88 -50 41 -6 88 18 107 56 73 144 202 200 335 145z m-673 -1671
c4 -87 12 -341 18 -565 l12 -408 -54 -57 c-121 -128 -193 -264 -228 -425 -64
-298 26 -587 250 -804 l71 -68 14 -435 c7 -239 14 -485 15 -546 l2 -110 -212
-3 c-208 -2 -211 -2 -211 18 0 30 -46 616 -75 955 -14 160 -43 524 -65 810
-22 286 -49 624 -60 750 -32 365 -80 977 -80 1013 l0 32 299 0 298 0 6 -157z
m1777 125 c0 -36 -48 -648 -80 -1013 -11 -126 -38 -464 -60 -750 -22 -286 -58
-731 -80 -990 -21 -259 -44 -543 -51 -633 l-12 -162 -207 0 c-114 0 -209 2
-211 4 -2 2 3 249 12 548 l16 543 71 69 c189 182 283 415 269 665 -12 217 -92
400 -246 564 l-54 57 12 408 c6 224 14 478 18 565 l6 157 298 0 299 0 0 -32z
m526 -112 c26 -26 34 -42 34 -71 0 -47 -31 -90 -74 -105 -44 -14 -80 -5 -116
32 -44 43 -42 98 4 144 28 28 42 34 76 34 34 0 48 -6 76 -34z m-67 -380 c32
-17 51 -54 51 -101 0 -40 -74 -670 -95 -810 -8 -55 -38 -291 -65 -525 -46
-391 -76 -621 -100 -775 -8 -48 -16 -66 -41 -89 -28 -25 -38 -28 -77 -23 -30
3 -53 13 -71 31 -24 25 -26 32 -24 104 1 42 18 201 38 352 19 151 60 480 90
730 30 250 59 487 65 525 6 39 22 162 35 275 14 113 30 222 35 243 19 65 95
95 159 63z m-1514 -631 c234 -49 434 -243 495 -481 40 -154 21 -306 -56 -454
-155 -300 -506 -429 -822 -301 -145 58 -258 164 -331 310 -59 118 -76 205 -68
336 10 160 70 288 192 411 63 64 98 90 165 123 139 68 279 87 425 56z"/>
<path d="M1850 6056 c-67 -19 -107 -43 -163 -94 -176 -165 -149 -459 54 -594
62 -41 144 -68 207 -68 37 0 50 6 78 34 26 26 34 42 34 71 0 50 -53 105 -101
105 -46 1 -111 31 -137 65 -83 106 -26 256 106 281 56 11 111 -13 168 -72 78
-81 97 -81 217 -2 85 56 197 49 274 -17 45 -38 67 -84 78 -162 12 -92 87 -137
157 -96 51 30 63 64 50 145 -45 291 -346 461 -614 346 l-48 -21 -40 28 c-21
15 -58 34 -82 42 -58 21 -182 26 -238 9z"/>
<path d="M5213 4376 c-267 -51 -478 -183 -601 -375 -185 -289 -207 -733 -51
-1031 105 -202 275 -335 508 -398 86 -23 116 -26 276 -26 162 -1 187 1 255 22
112 36 188 78 256 144 88 84 130 177 169 371 2 11 -3 17 -14 17 -13 0 -21 -18
-34 -72 -62 -268 -247 -408 -537 -408 -181 0 -323 55 -439 169 -165 162 -241
409 -228 735 11 287 108 520 284 687 68 66 137 103 225 124 167 39 319 -1 443
-116 88 -83 130 -149 191 -301 82 -205 86 -198 79 139 -4 153 -8 284 -10 291
-7 21 -29 12 -50 -21 -28 -44 -64 -45 -178 -8 -51 16 -119 37 -152 46 -83 22
-300 28 -392 11z"/>
<path d="M6375 4381 c-73 -30 -86 -152 -21 -194 84 -54 186 -3 186 93 0 34 -6
48 -34 76 -27 27 -42 34 -72 33 -22 0 -48 -4 -59 -8z"/>
<path d="M6330 3676 c-133 -17 -165 -24 -168 -37 -2 -12 8 -18 40 -22 53 -7
101 -55 118 -117 8 -28 10 -159 8 -403 -3 -349 -4 -363 -25 -402 -24 -46 -62
-71 -121 -81 -26 -4 -42 -12 -42 -20 0 -12 50 -14 285 -14 236 0 285 2 285 14
0 8 -19 18 -45 25 -62 16 -110 60 -124 115 -7 30 -11 199 -11 505 0 433 -1
461 -17 460 -10 -1 -92 -11 -183 -23z"/>
<path d="M6965 3676 c-134 -18 -160 -24 -163 -39 -3 -13 3 -17 25 -17 43 0 95
-33 116 -74 28 -53 36 -149 36 -416 1 -261 -10 -393 -34 -440 -20 -39 -66 -67
-122 -76 -27 -4 -43 -11 -43 -20 0 -12 49 -14 290 -14 233 0 290 3 290 13 0 7
-22 19 -50 26 -58 15 -94 41 -117 84 -15 27 -18 72 -21 312 -2 154 1 315 6
357 23 182 131 276 305 266 131 -7 202 -65 227 -184 7 -34 10 -170 8 -386 -3
-319 -4 -335 -25 -373 -24 -46 -62 -71 -121 -81 -26 -4 -42 -12 -42 -20 0 -12
50 -14 285 -14 229 0 285 3 285 13 0 7 -24 21 -53 30 -63 20 -101 57 -116 112
-7 25 -11 165 -11 376 0 374 -4 405 -63 475 -40 45 -97 76 -182 99 -149 39
-324 -1 -452 -104 l-53 -41 0 33 c0 74 -12 127 -29 126 -9 -1 -88 -11 -176
-23z"/>
<path d="M8643 3686 c-189 -43 -340 -181 -401 -365 -33 -98 -37 -281 -8 -376
59 -196 200 -330 388 -371 134 -29 324 -12 420 37 63 32 133 110 157 174 24
64 26 85 8 85 -7 0 -20 -22 -29 -48 -51 -143 -239 -217 -416 -163 -199 60
-321 259 -322 524 l0 97 381 0 382 0 -7 53 c-10 83 -24 122 -69 189 -73 107
-187 167 -337 174 -52 2 -109 -2 -147 -10z m193 -40 c27 -13 67 -43 87 -67 40
-46 77 -145 77 -205 l0 -34 -274 0 -275 0 5 38 c3 20 21 69 40 109 75 157 209
220 340 159z"/>
<path d="M9538 3677 c-167 -21 -196 -35 -115 -55 48 -12 78 -37 104 -85 16
-29 18 -68 18 -412 0 -353 -1 -384 -19 -423 -22 -49 -64 -78 -124 -88 -26 -4
-42 -12 -42 -20 0 -12 50 -14 285 -14 235 0 285 2 285 14 0 7 -20 19 -47 26
-25 8 -61 26 -79 42 -51 45 -56 90 -52 418 5 312 9 341 68 433 102 162 363
163 439 2 28 -60 40 -190 40 -430 1 -382 -22 -449 -158 -471 -25 -4 -41 -12
-41 -20 0 -12 51 -14 290 -14 230 0 290 3 290 13 0 7 -21 18 -46 25 -59 16
-99 44 -121 85 -15 27 -18 70 -21 280 -3 149 1 287 7 345 24 201 106 299 261
310 155 11 244 -62 270 -219 13 -81 13 -574 0 -653 -14 -84 -49 -127 -123
-146 -33 -8 -57 -20 -57 -27 0 -10 58 -13 285 -13 240 0 285 2 285 14 0 8 -14
18 -32 21 -65 14 -109 44 -129 88 -17 38 -19 69 -19 357 0 407 -9 459 -90 540
-144 144 -419 127 -617 -38 l-61 -51 -38 45 c-55 68 -74 84 -129 110 -141 66
-357 22 -491 -100 l-49 -44 -15 87 c-13 73 -18 86 -35 87 -11 1 -91 -7 -177
-19z"/>
<path d="M11785 3683 c-146 -31 -215 -80 -215 -152 0 -47 21 -76 65 -91 64
-21 102 4 146 94 35 72 63 104 106 122 71 31 170 3 218 -60 55 -72 72 -265 31
-344 -23 -45 -94 -88 -193 -117 -46 -14 -121 -36 -167 -50 -153 -46 -232 -125
-243 -244 -15 -167 87 -270 278 -279 121 -6 201 19 288 90 l64 52 16 -25 c55
-86 134 -125 243 -117 79 5 132 30 164 77 42 63 27 82 -24 31 -26 -25 -38 -30
-79 -30 -55 0 -88 19 -106 59 -8 17 -13 152 -17 412 l-5 386 -30 49 c-72 117
-330 182 -540 137z m372 -683 c-5 -197 -19 -251 -80 -317 -53 -57 -89 -76
-152 -77 -64 0 -112 28 -145 86 -52 93 -19 244 70 320 21 18 87 61 146 95 60
35 120 72 134 82 l25 20 4 -22 c2 -12 1 -96 -2 -187z"/>
</g>
</svg>
